<svg width="25" height="31" viewBox="0 0 25 31" fill="none" xmlns="http://www.w3.org/2000/svg">
  <path d="M12.4999 18.748C15.8584 18.748 18.5896 16.0851 18.5896 12.8105C18.5896 9.53602 15.8584 6.87305 12.4999 6.87305C9.14141 6.87305 6.41016 9.53602 6.41016 12.8105C6.41016 16.0851 9.14141 18.748 12.4999 18.748ZM12.4999 9.8418C14.1791 9.8418 15.5448 11.1733 15.5448 12.8105C15.5448 14.4478 14.1791 15.7793 12.4999 15.7793C10.8207 15.7793 9.45503 14.4478 9.45503 12.8105C9.45503 11.1733 10.8207 9.8418 12.4999 9.8418Z" fill="#2091F9"/>
  <path d="M11.2966 30.3469C11.5543 30.5264 11.863 30.6228 12.1796 30.6228C12.4962 30.6228 12.805 30.5264 13.0626 30.3469C13.5255 30.0278 24.4033 22.3699 24.3591 12.8105C24.3591 6.26297 18.8951 0.935547 12.1796 0.935547C5.46416 0.935547 0.000134032 6.26297 0.000134032 12.8031C-0.0440166 22.3699 10.8338 30.0278 11.2966 30.3469ZM12.1796 3.9043C17.2174 3.9043 21.3142 7.89875 21.3142 12.818C21.3462 19.4056 14.6338 25.3209 12.1796 27.2609C9.72698 25.3194 3.01303 19.4027 3.04501 12.8105C3.04501 7.89875 7.14188 3.9043 12.1796 3.9043Z" fill="#2091F9"/>
</svg>
