<svg width="42" height="42" viewBox="0 0 42 42" fill="none" xmlns="http://www.w3.org/2000/svg">
<path d="M37.665 10.9719C36.4402 11.5003 35.1073 11.8805 33.7344 12.0286C35.1598 11.1818 36.2272 9.84398 36.7364 8.26616C35.3988 9.06183 33.9336 9.61977 32.4056 9.91523C31.7669 9.23249 30.9945 8.68859 30.1365 8.31742C29.2785 7.94625 28.3532 7.75576 27.4183 7.75783C23.6359 7.75783 20.5939 10.8238 20.5939 14.5863C20.5939 15.1146 20.6579 15.6429 20.762 16.1513C15.0983 15.8551 10.0471 13.1493 6.68889 9.00664C6.07699 10.0518 5.75634 11.2418 5.76028 12.4529C5.76028 14.8224 6.96507 16.9118 8.80226 18.1406C7.71957 18.0979 6.66224 17.8003 5.71626 17.272V17.3561C5.71626 20.6742 8.06178 23.424 11.1878 24.0564C10.6009 24.2089 9.99706 24.2869 9.39064 24.2886C8.94635 24.2886 8.52608 24.2445 8.1018 24.1845C8.96636 26.8902 11.484 28.8555 14.4819 28.9196C12.1364 30.7568 9.19851 31.8375 6.00845 31.8375C5.43607 31.8375 4.90773 31.8174 4.35938 31.7534C7.38534 33.6947 10.9757 34.8154 14.8422 34.8154C27.3943 34.8154 34.2628 24.4166 34.2628 15.3908C34.2628 15.0946 34.2628 14.7984 34.2428 14.5022C35.5716 13.5296 36.7364 12.3248 37.665 10.9719Z" fill="#2091F9"/>
</svg>
