<svg width="60" height="61" viewBox="0 0 60 61" fill="none" xmlns="http://www.w3.org/2000/svg">
<path d="M51.775 11.6939L48.425 8.34392C47.5 7.36892 45.875 7.36892 44.9 8.34392L22.5 30.7439L29.375 37.6189L51.775 15.2189C52.75 14.2439 52.75 12.6189 51.775 11.6939V11.6939ZM17.5 35.1189C15.5109 35.1189 13.6032 35.9091 12.1967 37.3156C10.7902 38.7221 10 40.6298 10 42.6189C10 45.8939 7.1 47.6189 5 47.6189C7.3 50.6689 11.25 52.6189 15 52.6189C17.6522 52.6189 20.1957 51.5654 22.0711 49.69C23.9464 47.8146 25 45.2711 25 42.6189C25 40.6298 24.2098 38.7221 22.8033 37.3156C21.3968 35.9091 19.4891 35.1189 17.5 35.1189Z" fill="#2091F9"/>
</svg>
