<svg width="42" height="42" viewBox="0 0 42 42" fill="none" xmlns="http://www.w3.org/2000/svg">
<path d="M35.7321 5.27539H6.27302C5.56456 5.27539 4.99219 5.84776 4.99219 6.55622V36.0153C4.99219 36.7238 5.56456 37.2962 6.27302 37.2962H35.7321C36.4406 37.2962 37.013 36.7238 37.013 36.0153V6.55622C37.013 5.84776 36.4406 5.27539 35.7321 5.27539ZM32.0337 14.6215H29.4761C27.4708 14.6215 27.0825 15.5741 27.0825 16.975V20.061H31.8696L31.2452 24.8921H27.0825V37.2962H22.0913V24.8961H17.9166V20.061H22.0913V16.4987C22.0913 12.364 24.6169 10.1105 28.3073 10.1105C30.0765 10.1105 31.5934 10.2426 32.0377 10.3027V14.6215H32.0337Z" fill="#2091F9"/>
</svg>
