<svg width="42" height="42" viewBox="0 0 42 42" fill="none" xmlns="http://www.w3.org/2000/svg">
<path d="M35.7165 5.27539H6.25739C5.54893 5.27539 4.97656 5.84776 4.97656 6.55622V36.0153C4.97656 36.7238 5.54893 37.2962 6.25739 37.2962H35.7165C36.425 37.2962 36.9973 36.7238 36.9973 36.0153V6.55622C36.9973 5.84776 36.425 5.27539 35.7165 5.27539ZM14.4747 32.5611H9.72364V17.2792H14.4747V32.5611ZM12.1012 15.1898C11.5565 15.1898 11.0241 15.0283 10.5713 14.7257C10.1184 14.4231 9.76545 13.9931 9.55702 13.4899C9.34859 12.9867 9.29406 12.433 9.40031 11.8988C9.50657 11.3646 9.76884 10.8739 10.154 10.4888C10.5391 10.1037 11.0298 9.84142 11.5639 9.73516C12.0981 9.62891 12.6518 9.68344 13.155 9.89187C13.6582 10.1003 14.0883 10.4533 14.3909 10.9061C14.6935 11.359 14.855 11.8914 14.855 12.436C14.851 13.957 13.6182 15.1898 12.1012 15.1898ZM32.2623 32.5611H27.5152V25.1283C27.5152 23.3551 27.4832 21.0776 25.0456 21.0776C22.576 21.0776 22.1957 23.0069 22.1957 25.0002V32.5611H17.4527V17.2792H22.0076V19.3685H22.0717C22.7041 18.1678 24.2531 16.8989 26.5666 16.8989C31.3777 16.8989 32.2623 20.065 32.2623 24.1797V32.5611Z" fill="#2091F9"/>
</svg>
