<svg width="128" height="52" viewBox="0 0 128 52" fill="none" xmlns="http://www.w3.org/2000/svg">
<g clip-path="url(#clip0_67_5655)">
<path d="M0.660156 0.960938V4.42778H25.318V0.960938H0.660156ZM28.8115 0.960938V4.42778H63.95C63.95 4.42778 60.3607 0.960938 55.607 0.960938H28.8115ZM70.8431 0.960938V4.42778H92.1013L90.8395 0.960938H70.8431ZM107.342 0.960938L106.081 4.42778H127.146V0.960938H107.342ZM0.660156 7.70311V11.1699H25.318V7.70311H0.660156ZM28.8115 7.70806V11.1699H68.0274C68.0274 11.1699 67.5695 8.50178 66.7706 7.70806H28.8115ZM70.8431 7.70806V11.1699H94.432L93.2642 7.70806H70.8431ZM104.819 7.70806L103.651 11.1699H127.146V7.70806H104.819ZM7.74624 14.4453V17.9166H18.4249V14.4453H7.74624ZM35.8976 14.4453V17.9166H46.5762V14.4453H35.8976ZM56.9629 14.4453V17.9166H67.6415C67.6415 17.9166 68.3194 16.0832 68.3194 14.445H56.9629V14.4453ZM77.9292 14.4453V17.9166H96.8617L95.5998 14.445H77.9292V14.4453ZM102.493 14.4453L101.226 17.9168H120.253V14.4453H102.493ZM7.74624 21.1924V24.6587H18.4249V21.1924H7.74624ZM35.8976 21.1924V24.6587H63.1731C63.1731 24.6587 65.4548 22.8798 66.1817 21.1919H35.8976V21.1924ZM77.9292 21.1924V24.6587H88.6078V22.7289L89.2857 24.6587H108.847L109.574 22.7289V24.6587H120.253V21.1924H100.207L99.1429 24.129L98.074 21.1924H77.9292ZM7.74624 27.9341V31.4009H18.4249V27.9341H7.74624ZM35.8976 27.9341V31.4009H66.1817C65.4545 29.7185 63.1731 27.9341 63.1731 27.9341H35.8976ZM77.9292 27.9341V31.4009H88.6078V27.9341H77.9292ZM90.5475 27.9341L91.8391 31.4009H106.506L107.733 27.9341H90.5475ZM109.574 27.9341V31.4009H120.253V27.9341H109.574ZM7.74624 34.6763V38.1431H18.4249V34.6763H7.74624ZM35.8976 34.6763V38.1431H46.5762V34.6763H35.8976ZM56.9629 34.6763V38.1431H68.3194C68.3194 36.5069 67.6415 34.6763 67.6415 34.6763H56.9629ZM77.9292 34.6763V38.1431H88.6078V34.6763H77.9292ZM92.9722 34.6763L94.2242 38.1431H104.057L105.318 34.6763H92.9722ZM109.574 34.6763V38.1431H120.253V34.6763H109.574ZM0.853143 41.4187V44.8902H25.5109V41.4184H0.853143V41.4187ZM28.8115 41.4187V44.8902H66.7706C67.5695 44.0953 68.0274 41.4184 68.0274 41.4184H28.8115V41.4187ZM71.0361 41.4187V44.8902H88.6078V41.4184H71.0361V41.4187ZM95.4019 41.4187L96.6885 44.8902H101.691L102.899 41.4184H95.4019V41.4187ZM109.574 41.4187V44.8902H127.339V41.4184H109.574V41.4187ZM0.853143 48.1655V51.6324H25.5109V48.1655H0.853143ZM28.8115 48.1655V51.6272H55.607C60.3607 51.6272 63.95 48.1653 63.95 48.1653H28.8115V48.1655ZM71.0361 48.1655V51.6324H88.6078V48.1655H71.0361ZM97.8415 48.1655L99.0786 51.6222L99.2913 51.6272L100.548 48.1653H97.8415V48.1655ZM109.574 48.1655V51.6324H127.339V48.1655H109.574Z" fill="#1F70C1"/>
</g>
<defs>
<clipPath id="clip0_67_5655">
<rect width="126.679" height="50.7209" fill="white" transform="translate(0.660156 0.960938)"/>
</clipPath>
</defs>
</svg>
