<svg width="25" height="21" viewBox="0 0 25 21" fill="none" xmlns="http://www.w3.org/2000/svg">
<path d="M24.1071 0.966797H0.892857C0.398996 0.966797 0 1.37305 0 1.87589V20.0577C0 20.5605 0.398996 20.9668 0.892857 20.9668H24.1071C24.601 20.9668 25 20.5605 25 20.0577V1.87589C25 1.37305 24.601 0.966797 24.1071 0.966797ZM22.9911 4.11452V18.9213H2.00893V4.11452L1.23884 3.50373L2.33538 2.06907L3.52958 3.01509H21.4732L22.6674 2.06907L23.764 3.50373L22.9911 4.11452V4.11452ZM21.4732 3.01225L12.5 10.1145L3.52679 3.01225L2.33259 2.06623L1.23605 3.50089L2.00614 4.11168L11.5374 11.6571C11.8115 11.874 12.1487 11.9917 12.4958 11.9917C12.8429 11.9917 13.1801 11.874 13.4542 11.6571L22.9911 4.11452L23.7612 3.50373L22.6646 2.06907L21.4732 3.01225Z" fill="#2091F9"/>
</svg>
