<svg width="28" height="23" viewBox="0 0 28 23" fill="none" xmlns="http://www.w3.org/2000/svg">
<g clip-path="url(#clip0_67_7874)">
<path d="M25.8125 0.966797H1.4375C0.918945 0.966797 0.5 1.38574 0.5 1.9043V20.6543C0.5 21.1729 0.918945 21.5918 1.4375 21.5918H25.8125C26.3311 21.5918 26.75 21.1729 26.75 20.6543V1.9043C26.75 1.38574 26.3311 0.966797 25.8125 0.966797ZM24.6406 4.21289V19.4824H2.60938V4.21289L1.80078 3.58301L2.95215 2.10352L4.20605 3.0791H23.0469L24.3008 2.10352L25.4521 3.58301L24.6406 4.21289ZM23.0469 3.07617L13.625 10.4004L4.20312 3.07617L2.94922 2.10059L1.79785 3.58008L2.60645 4.20996L12.6143 11.9912C12.9021 12.2148 13.2561 12.3362 13.6206 12.3362C13.9851 12.3362 14.3391 12.2148 14.627 11.9912L24.6406 4.21289L25.4492 3.58301L24.2979 2.10352L23.0469 3.07617Z" fill="#2091F9"/>
</g>
<defs>
<clipPath id="clip0_67_7874">
<rect width="27" height="22" fill="white" transform="translate(0.5 0.279297)"/>
</clipPath>
</defs>
</svg>
