<svg width="60" height="61" viewBox="0 0 60 61" fill="none" xmlns="http://www.w3.org/2000/svg">
<path d="M24.376 52.244C28.826 50.494 27.851 45.669 25.601 42.619C23.376 39.494 20.301 37.344 17.201 35.269C14.9892 33.8749 13.0143 32.1363 11.351 30.119C10.651 29.294 9.22605 27.769 10.676 27.469C12.151 27.169 14.701 28.619 16.001 29.169C18.276 30.119 20.526 31.219 22.626 32.519L25.1511 28.269C21.2511 25.694 16.251 23.419 11.601 22.744C8.95105 22.344 6.15105 22.894 5.25105 25.769C4.45105 28.244 5.72605 30.744 7.17605 32.694C10.601 37.269 15.926 39.469 19.901 43.419C20.751 44.244 21.776 45.219 22.276 46.369C22.801 47.469 22.6761 47.544 21.5011 47.544C18.401 47.544 14.526 45.119 12.001 43.519L9.47605 47.769C13.301 50.119 19.701 53.794 24.376 52.244V52.244ZM52.1011 13.244C52.6511 12.694 52.6511 11.794 52.1011 11.269L48.8511 8.01898C48.5892 7.76662 48.2397 7.62561 47.876 7.62561C47.5124 7.62561 47.1629 7.76662 46.901 8.01898L44.3511 10.569L49.551 15.769L52.1011 13.244ZM27.501 27.419V32.619H32.7011L48.076 17.244L42.8761 12.044L27.501 27.419Z" fill="#2091F9"/>
</svg>
