<svg width="27" height="33" viewBox="0 0 27 33" fill="none" xmlns="http://www.w3.org/2000/svg">
<g clip-path="url(#clip0_67_7862)">
<path d="M13.5013 19.946C16.9941 19.946 19.8346 17.1055 19.8346 13.6126C19.8346 10.1198 16.9941 7.2793 13.5013 7.2793C10.0085 7.2793 7.16797 10.1198 7.16797 13.6126C7.16797 17.1055 10.0085 19.946 13.5013 19.946ZM13.5013 10.446C15.2477 10.446 16.668 11.8662 16.668 13.6126C16.668 15.359 15.2477 16.7793 13.5013 16.7793C11.7549 16.7793 10.3346 15.359 10.3346 13.6126C10.3346 11.8662 11.7549 10.446 13.5013 10.446Z" fill="#2091F9"/>
<path d="M12.2485 32.3185C12.5164 32.5098 12.8375 32.6127 13.1668 32.6127C13.4961 32.6127 13.8172 32.5098 14.0851 32.3185C14.5665 31.978 25.8794 23.8096 25.8335 13.613C25.8335 6.62887 20.1509 0.946289 13.1668 0.946289C6.18272 0.946289 0.500139 6.62887 0.500139 13.605C0.454223 23.8096 11.7671 31.978 12.2485 32.3185ZM13.1668 4.11296C18.4061 4.11296 22.6668 8.37371 22.6668 13.6209C22.7001 20.6477 15.7191 26.9573 13.1668 29.0267C10.6161 26.9557 3.63356 20.6445 3.66681 13.613C3.66681 8.37371 7.92756 4.11296 13.1668 4.11296Z" fill="#2091F9"/>
</g>
<defs>
<clipPath id="clip0_67_7862">
<rect width="26" height="32" fill="white" transform="translate(0.5 0.779297)"/>
</clipPath>
</defs>
</svg>
