<?xml version="1.0" standalone="no"?>
<!DOCTYPE svg PUBLIC "-//W3C//DTD SVG 20010904//EN"
 "http://www.w3.org/TR/2001/REC-SVG-20010904/DTD/svg10.dtd">
<svg version="1.0" xmlns="http://www.w3.org/2000/svg"
 width="321.000000pt" height="321.000000pt" viewBox="0 0 321.000000 321.000000"
 preserveAspectRatio="xMidYMid meet">
<metadata>
Created by potrace 1.14, written by Peter Selinger 2001-2017
</metadata>
<g transform="translate(0.000000,321.000000) scale(0.100000,-0.100000)"
fill="#000000" stroke="none">
<path d="M518 3175 c-2 -3 -28 -9 -56 -15 -49 -9 -168 -59 -200 -83 -19 -16
-143 -140 -159 -159 -23 -30 -71 -144 -82 -196 -14 -69 -15 -2166 -1 -2232 45
-205 235 -395 440 -440 63 -13 2200 -13 2259 1 47 10 159 59 188 81 9 7 51 47
92 88 79 78 110 130 150 250 l22 65 -3 1095 c-3 1040 -4 1097 -21 1135 -60
129 -77 155 -152 231 -90 91 -158 131 -279 164 -74 19 -103 20 -1134 20 -582
0 -1061 -2 -1064 -5z m1062 -1190 c44 -23 60 -63 60 -151 0 -95 -22 -138 -78
-154 -21 -5 -153 -10 -304 -10 l-268 0 0 -65 0 -65 188 -1 c103 -1 198 -4 211
-8 49 -13 66 -53 66 -156 0 -79 -3 -96 -20 -115 -41 -46 -63 -50 -259 -50
l-184 0 -4 -195 -3 -195 -28 -27 c-25 -25 -35 -28 -113 -32 -100 -4 -138 9
-162 53 -15 28 -17 81 -17 561 0 589 -2 574 67 608 48 24 803 25 848 2z m428
1 c15 -8 36 -24 47 -36 19 -21 20 -38 23 -471 l3 -449 245 0 c272 0 293 -4
313 -61 22 -65 11 -151 -26 -187 -15 -15 -55 -17 -410 -17 l-393 0 -27 28 -28
27 -3 543 c-3 601 -5 588 62 621 40 20 157 21 194 2z"/>
</g>
</svg>
