<svg width="390" height="308" viewBox="0 0 390 308" fill="none" xmlns="http://www.w3.org/2000/svg">
<g clip-path="url(#clip0_66_3942)">
<path d="M209.775 301.364C288.083 301.364 351.565 283.218 351.565 260.834C351.565 238.45 288.083 220.303 209.775 220.303C131.466 220.303 67.9844 238.45 67.9844 260.834C67.9844 283.218 131.466 301.364 209.775 301.364Z" fill="#F5F5F5"/>
<path d="M344.679 103.167C344.679 103.167 319.561 128.296 333.741 165.584C347.92 202.872 309.434 264.883 309.434 264.883C309.434 264.883 309.839 264.822 310.612 264.688C362.2 255.577 387.832 196.549 359.145 152.699C348.495 136.398 339.724 117.272 344.679 103.167Z" fill="#2091F9"/>
<path d="M344.679 103.167C344.679 103.167 330.5 133.97 344.679 159.099C358.858 184.228 347.109 254.75 309.434 264.883" stroke="#535461" stroke-width="2" stroke-miterlimit="10"/>
<path d="M389.41 204.805C389.41 204.805 360.748 200.237 358.135 225.937C355.522 251.638 303.039 255.196 303.039 255.196C303.039 255.196 303.379 255.431 304.023 255.853C347.371 284.321 388.81 273.986 382.567 236.183C380.23 222.132 380.416 208.015 389.41 204.805Z" fill="#2091F9"/>
<path opacity="0.2" d="M389.41 204.805C389.41 204.805 360.748 200.237 358.135 225.937C355.522 251.638 303.039 255.196 303.039 255.196C303.039 255.196 303.379 255.431 304.023 255.853C347.371 284.321 388.81 273.986 382.567 236.183C380.23 222.132 380.416 208.015 389.41 204.805Z" fill="#F5F5F5"/>
<path d="M389.41 204.805C389.41 204.805 367.161 209.693 368.988 229.933C370.815 250.174 335.935 274.428 303.023 255.188" stroke="#535461" stroke-width="2" stroke-miterlimit="10"/>
<path opacity="0.2" d="M61.835 6.39667C58.5697 6.28318 55.2235 6.39667 52.1608 7.53962C43.8276 10.6483 39.8777 20.8174 41.1619 29.6246C42.4462 38.4318 47.7289 46.0799 53.2101 53.0876C58.6913 60.0953 64.6303 67.0138 67.6362 75.3793C69.1352 79.558 69.836 84.2392 68.3128 88.4098C65.9631 94.842 58.8776 98.437 52.0757 99.1828C45.2739 99.9285 38.4436 98.4735 31.6174 97.9668C28.7532 97.7642 25.8081 97.7399 23.11 98.6802C20.1486 99.7056 17.6814 101.797 15.4128 103.977C6.56102 112.529 -0.524445 124.202 0.622032 136.458C1.9184 150.352 13.4804 161.336 26.1443 167.225C30.3373 169.179 34.7733 170.759 38.4639 173.548C48.1866 180.9 50.3702 194.676 49.402 206.839C48.4338 219.003 45.1361 231.178 46.9713 243.236C49.1306 257.259 58.6872 269.925 71.578 275.842C83.063 281.111 97.4365 280.783 107.633 273.329C112.604 269.682 116.364 264.652 119.633 259.436C124.567 251.566 128.571 243.15 131.563 234.355C132.985 230.177 134.322 225.682 137.64 222.776C139.666 220.989 142.291 219.987 144.888 219.209C152.715 216.867 160.959 216.222 168.858 214.139C176.758 212.056 184.707 208.173 189.001 201.23C195.077 191.377 192.242 178.776 192.27 167.185C192.319 140.775 208.114 117.13 213.944 91.3928C215.848 82.9787 216.557 73.6689 212.303 66.1667C209.41 61.0478 204.537 57.4 199.412 54.5629C188.15 48.305 175.348 45.5206 162.753 42.8091C145.248 39.0479 123.992 38.5615 110.425 26.3943C97.4041 14.7216 79.5912 6.39667 61.835 6.39667Z" fill="#2091F9"/>
<g opacity="0.5">
<path opacity="0.5" d="M125.333 108.618C125.332 102.253 124.336 95.9262 122.38 89.8688L117.518 74.7875C117.518 74.5362 117.518 74.289 117.518 74.0417C117.668 64.3753 110.137 59.5522 107.237 60.075C104.267 60.61 96.0271 56.4759 96.0271 56.4759V56.5894C95.4621 55.9387 94.9526 55.2419 94.5038 54.5061C95.9275 53.4688 97.1296 52.1571 98.0393 50.6483C98.9491 49.1395 99.5482 47.464 99.8015 45.7202C100.055 43.9764 99.957 42.1996 99.5141 40.4942C99.0711 38.7887 98.2919 37.1891 97.2222 35.7892C98.1128 35.1197 98.792 34.208 99.1789 33.1629C99.8514 31.2701 99.3369 29.1098 98.2431 27.4238C97.778 26.7199 97.2343 26.0713 96.6226 25.4905C95.696 24.5721 94.6841 23.7442 93.6004 23.0181C90.8983 21.1456 87.9288 19.5366 84.6879 18.9651C84.1271 18.8326 83.5432 18.8326 82.9824 18.9651C82.4956 19.1616 82.0323 19.4117 81.6009 19.7108C79.3809 20.9754 76.618 20.4282 74.0577 20.2945C71.4973 20.1607 68.386 20.8781 67.5758 23.2816C67.3246 24.0233 67.3408 24.8258 67.1707 25.5877C66.7656 27.4521 65.3274 28.8991 64.2174 30.4514C63.1074 32.0037 62.2769 34.0991 63.2006 35.7852C63.5165 36.3526 64.0108 36.8754 64.0108 37.5239C64.0108 37.99 63.7353 38.4075 63.6057 38.8533C63.3261 39.8666 63.8528 40.8798 64.663 41.6134C65.0122 41.99 65.4232 42.3039 65.8784 42.5416C67.1626 43.1982 68.6413 43.4008 69.9498 44.0088C70.6029 44.3157 71.2022 44.7263 71.7242 45.2247C72.3637 45.8944 72.8635 46.6848 73.1946 47.5497C73.5256 48.4146 73.6813 49.3369 73.6525 50.2626L73.924 50.291C73.924 50.372 73.924 50.449 73.924 50.5301C74.2075 50.5625 74.5073 50.5909 74.8031 50.6031C75.2285 51.2901 75.7153 51.9372 76.2574 52.5364C76.1656 52.8822 76.0616 53.2335 75.9455 53.5901C74.9935 54.2508 67.2072 59.4387 58.3513 58.1903C48.9 56.8569 43.4957 98.1978 43.4957 98.1978C43.1454 100.562 42.9748 102.949 42.9853 105.339C42.9448 111.419 44.2209 119.375 51.3307 118.204L55.1104 116.959V137.407C55.1104 137.407 55.6492 143.008 53.7614 146.729C51.8735 150.45 59.7044 149.128 59.7044 149.128C59.7044 149.128 60.0042 149.44 60.5552 149.971L60.381 150.462L60.6119 150.697C59.582 154.219 58.1932 157.627 56.4675 160.866L56.6904 160.979C56.5486 161.251 56.4675 161.385 56.4675 161.385C56.4675 161.385 59.3763 162.872 63.3788 164.789C66.5954 175.668 73.6363 200.861 71.3191 205.66L71.3839 205.798C71.8174 206.698 74.24 212.003 73.7498 216.863C73.3082 221.207 79.3201 240.95 81.5645 248.12L80.503 248.334L84.2828 261.936L83.4725 270.739C83.4725 270.739 78.8826 283.008 89.683 280.609C100.483 278.209 97.5139 268.34 97.5139 268.34L97.7853 248.334C97.7853 248.334 96.7441 247.755 95.4599 247.199C94.5768 244.812 92.6525 239.17 92.6525 235.267C92.6525 230.201 89.1401 208.327 89.1401 208.327V208.282V208.197V208.173L89.1199 207.881V207.832C89.1199 207.561 89.0753 207.188 89.0429 206.734V206.71C88.6378 200.796 87.4224 180.705 88.3096 170.232C89.0898 169.7 89.9016 169.216 90.7403 168.781C93.3695 175.428 100.147 193.387 99.7136 200.922C99.1748 210.244 99.5799 202.924 99.7136 201.733C99.7541 201.364 99.7825 201.81 99.7947 202.811C99.7947 202.993 99.7947 203.196 99.7947 203.411C99.7947 203.625 99.7947 203.864 99.7947 204.112C99.7947 204.359 99.7947 204.626 99.7947 204.922C99.7947 205.063 99.7947 205.206 99.7947 205.352C99.7947 205.644 99.7947 205.949 99.7947 206.268C99.7947 206.427 99.7947 206.589 99.7947 206.754C99.7947 207.565 99.7947 208.465 99.7663 209.401C99.7663 209.587 99.7663 209.776 99.7663 209.968C99.7663 210.54 99.7663 211.123 99.7379 211.715C99.7379 212.526 99.7055 213.312 99.6893 214.127C99.6488 215.951 99.5961 217.795 99.5313 219.521C99.5313 219.713 99.5246 219.904 99.5111 220.093C99.4976 220.471 99.4827 220.841 99.4665 221.203C99.4503 221.565 99.4341 221.919 99.4179 222.265C99.4017 222.608 99.3841 222.942 99.3652 223.266C99.345 223.647 99.3207 224.012 99.3004 224.361L97.8339 224.15L97.5219 227.522C97.0306 232.876 97.7221 238.272 99.5475 243.329C100.05 244.715 100.439 245.862 100.524 246.271C100.795 247.605 100.524 257.215 100.524 257.215C100.524 257.215 102.144 269.751 109.708 267.347C113.111 266.265 114.764 262.974 115.554 259.675C116.43 255.85 116.103 251.848 114.618 248.217C113.544 245.517 112.446 241.732 113.22 238.806C114.569 233.739 114.569 226.537 114.569 226.537L113.735 226.42C113.943 226.024 114.131 225.618 114.298 225.204C114.298 225.204 114.026 206.799 116.457 204.399C117.794 203.078 117.672 199.905 117.267 197.311C116.689 193.557 116.553 189.748 116.862 185.962C117.028 184.013 117.267 182.314 117.547 181.711C118.26 180.3 118.973 166.082 115.817 159.241L116.465 159.038L116.364 158.535L116.465 158.503C116.941 159.774 117.482 161.02 118.086 162.236C118.245 162.361 118.428 162.452 118.624 162.503C127.371 160.967 127.723 152.8 127.237 148.342C127.606 148.52 127.808 148.634 127.808 148.634L128.619 136.88C129.449 135.003 129.757 132.608 129.737 130.018C129.773 120.761 125.333 108.618 125.333 108.618ZM115.691 142.027C115.092 136.908 114.261 132.089 114.261 132.089L110.21 117.685V112.44L116.635 136.434L115.691 142.027Z" fill="url(#paint0_linear_66_3942)"/>
</g>
<path d="M97.4782 220.709L97.1785 224.004C96.7054 229.24 97.3758 234.516 99.1433 239.466C99.6253 240.824 100.002 241.943 100.083 242.344C100.342 243.649 100.083 253.032 100.083 253.032C100.083 253.032 101.647 265.284 108.943 262.937C112.224 261.884 113.804 258.662 114.582 255.439C115.425 251.702 115.109 247.797 113.675 244.245C112.638 241.606 111.576 237.898 112.326 235.049C113.63 230.096 113.63 223.06 113.63 223.06L97.4782 220.709Z" fill="#5A5773"/>
<path d="M89.6602 164.145C89.6602 164.145 99.8205 188.909 99.2979 198.028C98.7753 207.147 99.1682 199.982 99.2979 198.81C99.5288 196.723 99.2979 221.507 98.516 224.345C98.516 224.345 109.199 232.163 113.368 221.738C113.368 221.738 113.108 203.755 115.45 201.408C116.738 200.12 116.613 197.015 116.232 194.482C115.67 190.817 115.534 187.1 115.827 183.405C115.985 181.5 116.203 179.822 116.487 179.25C117.269 177.686 118.051 159.962 113.359 155.009L89.6602 164.145Z" fill="#605D82"/>
<path opacity="0.1" d="M99.8203 224.357C100.602 221.491 100.833 196.723 100.602 198.823C100.473 199.994 100.08 207.164 100.602 198.04C101.125 188.917 90.9645 164.157 90.9645 164.157L113.696 155.411C113.59 155.277 113.481 155.151 113.371 155.034L89.6641 164.157C89.6641 164.157 99.8244 188.921 99.3018 198.04C98.7792 207.16 99.1721 199.994 99.3018 198.823C99.5327 196.735 99.3018 221.52 98.5199 224.357C98.5199 224.357 102.786 227.478 106.979 227.145C103.248 226.866 99.8203 224.357 99.8203 224.357Z" fill="black"/>
<path d="M80.8008 244.427L84.4468 257.721L83.665 266.322C83.665 266.322 79.237 278.31 89.6566 275.964C100.076 273.617 97.212 263.975 97.212 263.975L97.4713 244.427C97.4713 244.427 93.3026 242.08 91.4796 242.344C89.6566 242.607 80.8008 244.427 80.8008 244.427Z" fill="#5A5773"/>
<path d="M62.8281 157.891C62.8281 157.891 74.8114 196.727 71.9473 202.722C71.9473 202.722 74.8114 208.457 74.2929 213.665C73.7743 218.873 82.6302 246.766 82.6302 246.766L95.6587 244.419C95.6587 244.419 92.5312 236.601 92.5312 231.648C92.5312 226.695 89.1444 205.303 89.1444 205.303C89.1444 205.303 86.2803 166.204 89.667 162.033L62.8281 157.891Z" fill="#605D82"/>
<g opacity="0.1">
<path opacity="0.1" d="M88.6542 165.211C86.4949 174.063 88.8811 206.637 88.8811 206.637C88.8811 206.637 92.2678 228.009 92.2678 232.982C92.2678 236.763 94.0868 242.21 94.9497 244.577L95.6546 244.452C95.6546 244.452 92.5271 236.633 92.5271 231.681C92.5271 226.728 89.1403 205.336 89.1403 205.336C89.1403 205.336 86.9608 175.566 88.6542 165.211Z" fill="black"/>
<path opacity="0.1" d="M71.9453 202.722L72.0101 202.856C72.0304 202.722 72.0507 202.58 72.0628 202.45C72.0283 202.543 71.9891 202.633 71.9453 202.722V202.722Z" fill="black"/>
<path opacity="0.1" d="M89.0756 163.314C89.1939 162.864 89.393 162.44 89.663 162.062L62.8281 157.891C62.8281 157.891 62.9861 158.398 63.2575 159.302L89.0756 163.314Z" fill="black"/>
</g>
<path d="M125.351 143.815C125.351 143.815 129.26 158.406 117.536 160.497C117.346 160.447 117.168 160.359 117.014 160.238C117.014 160.238 110.24 146.944 115.45 141.731L125.351 143.815Z" fill="#FAC3CA"/>
<path d="M77.4158 46.8621C77.4158 46.8621 78.1977 57.8052 69.6011 63.0215C61.0046 68.2378 87.8313 82.5693 87.8313 82.5693L101.901 60.152C101.901 60.152 95.9133 60.9261 92.2673 50.5098L77.4158 46.8621Z" fill="#FAC3CA"/>
<path opacity="0.1" d="M71.6826 63.7957C71.6826 63.7957 84.9704 91.4252 96.9538 65.3601L115.451 157.105C115.451 157.105 86.7894 165.969 86.5342 170.139C86.279 174.31 57.6211 159.455 57.6211 159.455C57.6211 159.455 63.872 147.985 62.3123 140.949C60.7526 133.913 71.6826 63.7957 71.6826 63.7957Z" fill="black"/>
<path d="M71.6826 63.2729C71.6826 63.2729 84.9704 90.9025 96.9538 64.8374L115.451 156.586C115.451 156.586 86.7894 165.45 86.5342 169.62C86.279 173.791 57.6211 158.933 57.6211 158.933C57.6211 158.933 63.872 147.463 62.3123 140.426C60.7526 133.39 71.6826 63.2729 71.6826 63.2729Z" fill="#E1E7EF"/>
<path d="M84.7106 251.727C84.7106 251.727 81.3238 244.168 89.1385 244.168C96.9532 244.168 95.6528 250.945 95.6528 250.945L84.7106 251.727Z" fill="#5A5773"/>
<path d="M102.426 232.175C102.426 232.175 99.2989 224.093 107.118 223.834C114.936 223.574 111.027 231.129 111.027 231.129L102.426 232.175Z" fill="#5A5773"/>
<path opacity="0.1" d="M95.7812 57.4001C95.7812 57.4001 103.726 61.4532 106.594 60.9182C109.462 60.3832 117.013 65.3481 116.495 75.2538L121.202 90.0311C123.085 95.9564 124.042 102.137 124.038 108.355V108.355C124.038 108.355 130.812 127.12 127.166 135.462L126.384 146.932C126.384 146.932 120.392 143.543 114.137 144.585L115.713 135.218L108.664 108.626L96.9399 80.2147L95.7812 57.4001Z" fill="black"/>
<path d="M95.7812 56.8853C95.7812 56.8853 103.726 60.9383 106.594 60.4033C109.462 59.8683 117.013 64.8333 116.495 74.7389L121.202 89.5162C123.085 95.4415 124.042 101.622 124.038 107.84V107.84C124.038 107.84 130.812 126.606 127.166 134.947L126.384 146.417C126.384 146.417 120.392 143.028 114.137 144.07L115.701 134.687L108.664 108.103L96.952 79.6917L95.7812 56.8853Z" fill="#67647E"/>
<path opacity="0.1" d="M108.939 88.5557V118.009L112.849 132.085C112.849 132.085 115.454 147.462 114.672 152.156C113.89 156.849 101.384 157.891 97.9972 153.98C94.6105 150.069 96.4335 116.692 96.4335 116.692L95.7812 67.8325L96.3038 66.2681L108.939 88.5557Z" fill="black"/>
<path d="M109.475 87.2546V116.708L113.384 130.784C113.384 130.784 115.989 146.161 115.207 150.855C114.425 155.548 101.919 156.59 98.5324 152.679C95.1456 148.767 96.9686 115.391 96.9686 115.391L96.3164 66.5193L109.475 87.2546Z" fill="#67647E"/>
<path opacity="0.1" d="M56.9648 111.755L65.3021 137.695L61.3928 148.772C61.3928 148.772 79.8903 168.319 91.6144 158.937C91.6144 158.937 92.9188 119.055 90.3099 109.672C87.701 100.289 75.1991 68.7365 75.1991 68.7365L72.6104 60.4075L58.8041 68.2258L56.9648 111.755Z" fill="black"/>
<path d="M56.312 110.45V135.984C56.312 135.984 56.8346 141.46 55.0075 145.108C53.1805 148.755 60.7399 147.454 60.7399 147.454C60.7399 147.454 79.2375 167.002 90.9615 157.619C90.9615 157.619 92.266 117.737 89.6571 108.355C87.0481 98.9719 74.5462 67.419 74.5462 67.419L71.9414 59.0779L58.135 66.8962L56.312 110.45Z" fill="#67647E"/>
<path opacity="0.1" d="M76.5047 54.5427C76.5047 54.5427 68.5604 60.4075 59.4412 59.1024C50.3221 57.7973 45.1123 98.202 45.1123 98.202C45.1123 98.202 41.7255 119.055 52.6677 117.231L76.8976 109.149C76.8976 109.149 71.6879 103.674 72.4697 96.6375L60.7417 101.327L61.2683 78.9136L76.5047 54.5427Z" fill="black"/>
<path opacity="0.1" d="M45.6279 97.6792C45.6279 97.6792 42.2412 118.532 53.1833 116.708L77.4133 108.626C77.4133 108.626 72.2035 103.155 72.9854 96.1147L61.2654 100.808L45.6279 97.6792Z" fill="black"/>
<path d="M72.4102 98.8627C72.4102 98.8627 80.5408 88.1667 86.5284 93.3019C92.516 98.4371 74.5573 107.848 74.5573 107.848L72.4102 98.8627Z" fill="#FAC3CA"/>
<path d="M76.5047 54.0198C76.5047 54.0198 68.5604 59.8845 59.4412 58.5794C50.3221 57.2744 45.1123 97.679 45.1123 97.679C45.1123 97.679 41.7255 118.532 52.6677 116.708L76.8976 108.626C76.8976 108.626 71.6879 103.151 72.4697 96.1146L60.7417 100.808L61.2683 78.3907L74.5561 67.4475L76.5047 54.0198Z" fill="#67647E"/>
<path opacity="0.1" d="M92.5241 51.0205L77.6726 47.3728C77.6726 47.3728 78.4464 48.2483 77.543 51.6731C79.9331 54.417 82.8702 58.0607 86.7918 58.0607C89.5981 58.0659 92.3304 57.1599 94.5781 55.4789C93.7393 54.0688 93.0509 52.5745 92.5241 51.0205Z" fill="black"/>
<path d="M86.5363 57.542C93.7318 57.542 99.5648 51.7062 99.5648 44.5075C99.5648 37.3087 93.7318 31.4729 86.5363 31.4729C79.3409 31.4729 73.5078 37.3087 73.5078 44.5075C73.5078 51.7062 79.3409 57.542 86.5363 57.542Z" fill="#FAC3CA"/>
<path opacity="0.1" d="M91.4719 38.8494C94.4941 38.3346 97.816 36.9931 98.8288 34.0992C99.477 32.247 98.9828 30.1394 97.9254 28.4898C96.8681 26.8402 95.3124 25.5716 93.7081 24.4368C91.1033 22.6048 88.231 21.0322 85.0954 20.481C84.5548 20.3517 83.9913 20.3517 83.4506 20.481C82.9805 20.6736 82.5334 20.9183 82.1178 21.2106C79.9747 22.4467 77.3091 21.9117 74.8257 21.782C72.3424 21.6523 69.3648 22.3535 68.5829 24.7002C68.3398 25.4257 68.356 26.208 68.1778 26.9537C67.7727 28.7776 66.3993 30.1961 65.342 31.716C64.2846 33.2359 63.4703 35.2908 64.3616 36.9282C64.6654 37.4835 65.1718 37.9942 65.1718 38.6264C65.0936 39.0758 64.9575 39.5132 64.7667 39.9275C64.3981 41.2731 65.4716 42.6308 66.7113 43.2712C67.9509 43.9116 69.3769 44.1102 70.6409 44.706C71.8239 45.29 72.8144 46.2018 73.4945 47.3327C74.1746 48.4636 74.5157 49.7662 74.4773 51.0855C75.6278 51.2192 76.9688 51.2881 77.7466 50.4289C78.095 50.0438 78.2651 49.5291 78.5811 49.1198C78.9863 48.5848 79.6182 48.2686 80.1368 47.839C82.8632 45.5977 80.9268 42.5011 82.4702 40.0855C83.2805 38.8413 84.5687 39.2222 85.8732 39.2425C87.7476 39.2864 89.622 39.1548 91.4719 38.8494V38.8494Z" fill="black"/>
<path d="M91.2141 38.5898C94.2363 38.0751 97.5582 36.7336 98.571 33.8397C99.2192 31.9875 98.725 29.8799 97.6676 28.2303C96.6102 26.5807 95.0546 25.3121 93.4503 24.1773C90.8455 22.3453 87.9732 20.7727 84.8376 20.2215C84.2969 20.0922 83.7335 20.0922 83.1928 20.2215C82.7227 20.414 82.2756 20.6587 81.86 20.951C79.7169 22.1872 77.0513 21.6522 74.5679 21.5225C72.0845 21.3928 69.107 22.094 68.3251 24.4407C68.082 25.1662 68.0982 25.9484 67.92 26.6942C67.5149 28.5181 66.1415 29.9366 65.0842 31.4565C64.0268 32.9764 63.2125 35.0313 64.1038 36.6687C64.4076 37.224 64.914 37.7347 64.914 38.3669C64.8358 38.8163 64.6997 39.2537 64.5089 39.668C64.1402 41.0136 65.2138 42.3713 66.4534 43.0117C67.6931 43.6521 69.1191 43.8507 70.3831 44.4465C71.5709 45.0299 72.5656 45.9434 73.2482 47.0777C73.9307 48.2119 74.2721 49.5189 74.2317 50.8422C75.3822 50.9759 76.7231 51.0448 77.501 50.1856C77.8493 49.8005 78.0195 49.2858 78.3355 48.8764C78.7406 48.3414 79.3726 48.0253 79.8911 47.5957C82.6176 45.3544 80.6811 42.2578 82.2246 39.8422C83.0348 38.598 84.3231 38.9789 85.6276 38.9992C87.4984 39.037 89.3687 38.8999 91.2141 38.5898Z" fill="#4A4347"/>
<path opacity="0.1" d="M106.984 82.4316C106.984 82.4316 109.849 97.2901 108.548 103.025C107.754 106.361 107.871 109.85 108.888 113.125" fill="black"/>
<path opacity="0.1" d="M60.684 88.6853C60.684 88.6853 59.4362 98.5909 61.5144 100.674Z" fill="black"/>
<path d="M133.432 210.759C133.593 210.759 133.748 210.695 133.862 210.581C133.976 210.467 134.04 210.312 134.04 210.151C134.04 209.989 133.976 209.835 133.862 209.721C133.748 209.607 133.593 209.543 133.432 209.543C133.271 209.543 133.116 209.607 133.002 209.721C132.888 209.835 132.824 209.989 132.824 210.151C132.824 210.312 132.888 210.467 133.002 210.581C133.116 210.695 133.271 210.759 133.432 210.759Z" fill="black"/>
<g opacity="0.5">
<path opacity="0.5" d="M320.542 139.932V139.596L210.01 54.5629C209.94 54.5113 209.856 54.4834 209.769 54.4834C209.682 54.4834 209.598 54.5113 209.528 54.5629L98.9922 139.596V271.4H99.2029V271.611H320.757V139.806L320.542 139.932Z" fill="url(#paint1_linear_66_3942)"/>
</g>
<path d="M316.725 267.724H102.824V140.459L209.775 58.1824L316.725 140.459V267.724Z" fill="white"/>
<path d="M309.026 260.181H110.52V142.076L209.773 65.7209L309.026 142.076V260.181Z" fill="#E0E0E0"/>
<path d="M243.448 63.9562L122.359 95.7153L162.733 249.793L283.822 218.034L243.448 63.9562Z" fill="#2091F9"/>
<path d="M272.974 87.3643H147.793V246.648H272.974V87.3643Z" fill="#F5F5F5"/>
<path opacity="0.05" d="M103.836 140.662L210.786 204.294L103.836 267.927V140.662Z" fill="black"/>
<path d="M103.027 140.662L209.978 204.294L103.027 267.927V140.662Z" fill="white"/>
<path opacity="0.05" d="M316.118 140.662L209.168 204.294L316.118 267.927V140.662Z" fill="black"/>
<path d="M316.927 140.662L209.977 204.294L316.927 267.927V140.662Z" fill="white"/>
<path opacity="0.05" d="M103.027 265.9L209.978 182.408L316.928 265.9H103.027Z" fill="black"/>
<path d="M103.027 267.927L209.978 184.434L316.928 267.927H103.027Z" fill="white"/>
<path d="M124.763 277.593C124.763 277.593 119.391 259.355 125.772 245.923C128.483 240.308 129.3 233.965 128.101 227.846C127.51 224.946 126.654 222.107 125.545 219.363" stroke="#535461" stroke-width="2" stroke-miterlimit="10"/>
<path d="M129.509 210.876C129.509 213.114 125.457 219.594 125.457 219.594C125.457 219.594 121.406 213.109 121.406 210.876C121.406 209.801 121.833 208.77 122.593 208.01C123.353 207.25 124.383 206.823 125.457 206.823C126.532 206.823 127.562 207.25 128.322 208.01C129.082 208.77 129.509 209.801 129.509 210.876Z" fill="#6C63FF"/>
<path d="M136.213 223.262C134.997 225.139 128.078 228.381 128.078 228.381C128.078 228.381 128.204 220.737 129.419 218.861C130.025 218.012 130.935 217.43 131.959 217.235C132.983 217.04 134.043 217.247 134.918 217.814C135.793 218.381 136.416 219.264 136.657 220.279C136.898 221.293 136.739 222.362 136.213 223.262Z" fill="#6C63FF"/>
<path d="M135.906 244.423C133.909 245.428 126.301 244.735 126.301 244.735C126.301 244.735 130.267 238.202 132.26 237.197C132.737 236.93 133.263 236.762 133.807 236.704C134.35 236.645 134.9 236.698 135.423 236.858C135.945 237.018 136.43 237.282 136.848 237.634C137.266 237.987 137.609 238.42 137.855 238.908C138.101 239.396 138.246 239.929 138.281 240.475C138.316 241.021 138.24 241.568 138.058 242.084C137.876 242.599 137.591 243.073 137.221 243.476C136.852 243.878 136.404 244.202 135.906 244.427V244.423Z" fill="#6C63FF"/>
<path d="M132.083 260.388C130.284 261.718 122.668 262.317 122.668 262.317C122.668 262.317 125.471 255.208 127.27 253.879C128.136 253.301 129.19 253.079 130.215 253.258C131.24 253.437 132.157 254.003 132.775 254.84C133.394 255.677 133.667 256.72 133.538 257.753C133.409 258.786 132.888 259.729 132.083 260.388V260.388Z" fill="#6C63FF"/>
<path d="M119.568 228.811C121.188 230.367 128.638 231.984 128.638 231.984C128.638 231.984 126.811 224.563 125.207 223.007C124.426 222.317 123.41 221.954 122.37 221.994C121.329 222.033 120.344 222.472 119.618 223.22C118.892 223.967 118.482 224.965 118.473 226.007C118.463 227.049 118.855 228.055 119.568 228.815V228.811Z" fill="#6C63FF"/>
<path d="M115.331 247.54C117.328 248.545 124.936 247.852 124.936 247.852C124.936 247.852 120.97 241.319 118.977 240.313C118.025 239.883 116.944 239.837 115.959 240.185C114.975 240.533 114.162 241.248 113.692 242.181C113.222 243.114 113.129 244.193 113.435 245.192C113.74 246.191 114.42 247.034 115.331 247.544V247.54Z" fill="#6C63FF"/>
<path d="M113.709 266.305C115.508 267.635 123.124 268.235 123.124 268.235C123.124 268.235 120.321 261.126 118.522 259.796C118.097 259.449 117.606 259.191 117.079 259.039C116.552 258.887 116 258.844 115.455 258.912C114.911 258.98 114.386 259.158 113.913 259.435C113.439 259.712 113.027 260.082 112.7 260.524C112.374 260.965 112.141 261.468 112.015 262.002C111.889 262.536 111.872 263.09 111.967 263.631C112.061 264.171 112.264 264.687 112.563 265.147C112.863 265.607 113.253 266.001 113.709 266.305V266.305Z" fill="#6C63FF"/>
<path opacity="0.5" d="M205.32 94.6597H155.086V98.7127H205.32V94.6597Z" fill="#6C63FF"/>
<path opacity="0.5" d="M263.657 110.872H155.086V114.925H263.657V110.872Z" fill="#6C63FF"/>
<path opacity="0.5" d="M263.657 121.41H155.086V125.463H263.657V121.41Z" fill="#6C63FF"/>
<path opacity="0.4" d="M263.657 131.948H155.086V136.001H263.657V131.948Z" fill="#6C63FF"/>
<path opacity="0.4" d="M263.657 142.485H155.086V146.538H263.657V142.485Z" fill="#6C63FF"/>
<path opacity="0.3" d="M217.069 153.023H155.086V157.076H217.069V153.023Z" fill="#6C63FF"/>
<path opacity="0.3" d="M239.755 163.561H155.086V167.614H239.755V163.561Z" fill="#6C63FF"/>
</g>
<defs>
<linearGradient id="paint0_linear_66_3942" x1="42.9893" y1="149.915" x2="129.692" y2="149.915" gradientUnits="userSpaceOnUse">
<stop stop-color="#808080" stop-opacity="0.25"/>
<stop offset="0.54" stop-color="#808080" stop-opacity="0.12"/>
<stop offset="1" stop-color="#808080" stop-opacity="0.1"/>
</linearGradient>
<linearGradient id="paint1_linear_66_3942" x1="141325" y1="160848" x2="141325" y2="44522.2" gradientUnits="userSpaceOnUse">
<stop stop-color="#808080" stop-opacity="0.25"/>
<stop offset="0.54" stop-color="#808080" stop-opacity="0.12"/>
<stop offset="1" stop-color="#808080" stop-opacity="0.1"/>
</linearGradient>
<clipPath id="clip0_66_3942">
<rect width="389" height="295" fill="white" transform="translate(0.5 6.36426)"/>
</clipPath>
</defs>
</svg>
