<svg xmlns="http://www.w3.org/2000/svg" xmlns:xlink="http://www.w3.org/1999/xlink"><symbol id="brush" viewBox="0 0 60 61"><path d="m51.775 11.694-3.35-3.35c-.925-.975-2.55-.975-3.525 0l-22.4 22.4 6.875 6.875 22.4-22.4c.975-.975.975-2.6 0-3.525ZM17.5 35.119a7.5 7.5 0 0 0-7.5 7.5c0 3.275-2.9 5-5 5 2.3 3.05 6.25 5 10 5a10 10 0 0 0 10-10 7.5 7.5 0 0 0-7.5-7.5Z"/></symbol><symbol id="cellphone" viewBox="0 0 21 35"><path d="M16.042 1.237H4.375A4.37 4.37 0 0 0 0 5.612v23.334a4.37 4.37 0 0 0 4.375 4.375h11.667a4.37 4.37 0 0 0 4.375-4.375V5.612a4.37 4.37 0 0 0-4.375-4.375Zm-2.917 29.167H7.292v-1.458h5.833v1.458Zm4.74-4.375H2.552V5.612h15.313V26.03Z"/></symbol><symbol id="fb" viewBox="0 0 42 42"><path d="M35.732 5.275H6.273a1.28 1.28 0 0 0-1.28 1.281v29.46c0 .708.572 1.28 1.28 1.28h29.46a1.28 1.28 0 0 0 1.28-1.28V6.555a1.28 1.28 0 0 0-1.28-1.28Zm-3.698 9.346h-2.558c-2.005 0-2.393.953-2.393 2.354v3.086h4.787l-.625 4.831h-4.163v12.404h-4.99v-12.4h-4.175v-4.835h4.174v-3.562c0-4.135 2.526-6.388 6.216-6.388 1.77 0 3.286.132 3.73.192v4.318h-.003Z"/></symbol><symbol id="in" viewBox="0 0 42 42"><path d="M35.717 5.275H6.257a1.28 1.28 0 0 0-1.28 1.281v29.46c0 .708.572 1.28 1.28 1.28h29.46a1.28 1.28 0 0 0 1.28-1.28V6.555a1.28 1.28 0 0 0-1.28-1.28ZM14.475 32.561H9.724V17.28h4.75v15.282ZM12.1 15.19a2.753 2.753 0 1 1 0-5.507 2.753 2.753 0 0 1 0 5.507ZM32.262 32.56h-4.747v-7.433c0-1.773-.032-4.05-2.47-4.05-2.469 0-2.85 1.929-2.85 3.922v7.561h-4.742V17.28h4.555v2.09h.064c.632-1.201 2.181-2.47 4.495-2.47 4.81 0 5.695 3.166 5.695 7.28v8.382Z"/></symbol><symbol id="mail" viewBox="0 0 25 21"><path d="M24.107.967H.893A.9.9 0 0 0 0 1.876v18.182a.9.9 0 0 0 .893.909h23.214a.9.9 0 0 0 .893-.91V1.877a.9.9 0 0 0-.893-.91Zm-1.116 3.148V18.92H2.01V4.115l-.77-.611 1.096-1.435 1.195.946h17.943l1.194-.946 1.097 1.435-.773.61Zm-1.518-1.103L12.5 10.114 3.527 3.012l-1.194-.946-1.097 1.435.77.61 9.531 7.546a1.544 1.544 0 0 0 1.917 0l9.537-7.542.77-.611-1.096-1.435-1.192.943Z"/></symbol><symbol id="pencil" viewBox="0 0 60 61"><path d="M24.376 52.244c4.45-1.75 3.475-6.575 1.225-9.625-2.225-3.125-5.3-5.275-8.4-7.35a24.545 24.545 0 0 1-5.85-5.15c-.7-.825-2.125-2.35-.675-2.65 1.475-.3 4.025 1.15 5.325 1.7 2.275.95 4.525 2.05 6.625 3.35l2.525-4.25c-3.9-2.575-8.9-4.85-13.55-5.525-2.65-.4-5.45.15-6.35 3.025-.8 2.475.475 4.975 1.925 6.925 3.425 4.575 8.75 6.775 12.725 10.725.85.825 1.875 1.8 2.375 2.95.525 1.1.4 1.175-.775 1.175-3.1 0-6.975-2.425-9.5-4.025l-2.525 4.25c3.825 2.35 10.225 6.025 14.9 4.475Zm27.725-39c.55-.55.55-1.45 0-1.975l-3.25-3.25a1.405 1.405 0 0 0-1.95 0l-2.55 2.55 5.2 5.2 2.55-2.525Zm-24.6 14.175v5.2h5.2l15.375-15.375-5.2-5.2-15.375 15.375Z"/></symbol><symbol id="pin" viewBox="0 0 25 31"><path d="M12.5 18.748c3.358 0 6.09-2.663 6.09-5.938 0-3.274-2.732-5.937-6.09-5.937-3.359 0-6.09 2.663-6.09 5.937 0 3.275 2.731 5.938 6.09 5.938Zm0-8.906c1.68 0 3.045 1.331 3.045 2.968 0 1.638-1.366 2.97-3.045 2.97-1.68 0-3.045-1.332-3.045-2.97 0-1.637 1.366-2.968 3.045-2.968Z"/><path d="M11.297 30.347a1.546 1.546 0 0 0 1.766 0c.462-.32 11.34-7.977 11.296-17.537C24.36 6.264 18.895.937 12.18.937 5.465.936 0 6.263 0 12.803c-.044 9.567 10.834 17.225 11.297 17.544Zm.883-26.443c5.037 0 9.134 3.995 9.134 8.914.032 6.588-6.68 12.503-9.134 14.443-2.453-1.942-9.167-7.858-9.135-14.45 0-4.912 4.097-8.907 9.135-8.907Z"/></symbol><symbol id="shapes" viewBox="0 0 60 61"><path d="M21.25 7.619A13.75 13.75 0 0 1 35 21.369c0 3.325-1.175 6.375-3.15 8.75H52.5v22.5H30v-20.65a13.628 13.628 0 0 1-8.75 3.15 13.75 13.75 0 1 1 0-27.5Z"/></symbol><symbol id="tw" viewBox="0 0 42 42"><path d="M37.665 10.972a13.686 13.686 0 0 1-3.93 1.057 6.809 6.809 0 0 0 3.001-3.763 13.475 13.475 0 0 1-4.33 1.65 6.81 6.81 0 0 0-4.988-2.158 6.823 6.823 0 0 0-6.824 6.828c0 .529.064 1.057.168 1.565A19.396 19.396 0 0 1 6.689 9.007a6.777 6.777 0 0 0-.929 3.446 6.83 6.83 0 0 0 3.042 5.688 6.886 6.886 0 0 1-3.086-.869v.084a6.826 6.826 0 0 0 5.472 6.7c-.587.153-1.19.23-1.797.233-.445 0-.865-.045-1.29-.105a6.838 6.838 0 0 0 6.38 4.736 13.679 13.679 0 0 1-8.473 2.917c-.572 0-1.1-.02-1.649-.084a19.327 19.327 0 0 0 10.483 3.062c12.552 0 19.42-10.398 19.42-19.424 0-.296 0-.593-.02-.889a14.7 14.7 0 0 0 3.423-3.53Z"/></symbol></svg>